<svg width="76" height="76" viewBox="0 0 76 76" fill="none" xmlns="http://www.w3.org/2000/svg">
<path d="M41.1667 66.5H11.4C10.8961 66.5 10.4128 66.2998 10.0565 65.9435C9.70018 65.5872 9.5 65.1039 9.5 64.6V11.4C9.5 10.8961 9.70018 10.4128 10.0565 10.0565C10.4128 9.70018 10.8961 9.5 11.4 9.5H64.6C65.1039 9.5 65.5872 9.70018 65.9435 10.0565C66.2998 10.4128 66.5 10.8961 66.5 11.4V41.1667" stroke="black" stroke-opacity="0.5" stroke-width="3" stroke-linecap="round" stroke-linejoin="round"/>
<path d="M9.5 50.6667L29.6377 42.0362C30.9302 41.4823 32.3961 41.4982 33.6763 42.0801L49.0833 49.0833M50.6667 60.1667H60.1667M69.6667 60.1667H60.1667M60.1667 60.1667V50.6667M60.1667 60.1667V69.6667M46.1883 29.8117C47.3761 30.9994 48.987 31.6667 50.6667 31.6667L-nan -nanL-nan -nanL50.6667 31.6667C52.3464 31.6667 53.9573 30.9994 55.145 29.8117C56.3327 28.6239 57 27.013 57 25.3333C57 23.6536 56.3327 22.0427 55.145 20.855C53.9573 19.6673 52.3464 19 50.6667 19C48.987 19 47.3761 19.6673 46.1883 20.855C45.0006 22.0427 44.3333 23.6536 44.3333 25.3333C44.3333 27.013 45.0006 28.6239 46.1883 29.8117Z" stroke="black" stroke-opacity="0.5" stroke-width="3" stroke-linecap="round" stroke-linejoin="round"/>
</svg>
