<svg width="24" height="25" viewBox="0 0 24 25" fill="none" xmlns="http://www.w3.org/2000/svg">
<path d="M3.49566 3.89686C3.11259 4.258 2.86202 4.73448 2.77961 5.25H2.75V5.5V18.375C2.75 19.2701 3.10558 20.1285 3.73851 20.7615C4.37145 21.3944 5.22989 21.75 6.125 21.75H18.375C19.2701 21.75 20.1285 21.3944 20.7615 20.7615C21.3944 20.1285 21.75 19.2701 21.75 18.375V9.625C21.75 8.84702 21.4812 8.09294 20.9893 7.49028C20.5407 6.94081 19.9317 6.54795 19.25 6.36481V5.625C19.25 4.99511 18.9998 4.39102 18.5544 3.94562C18.109 3.50022 17.5049 3.25 16.875 3.25H5.12502C5.12501 3.25 5.12501 3.25 5.125 3.25C4.51927 3.24995 3.93641 3.48135 3.49566 3.89686ZM16.125 13.25C15.8929 13.25 15.6704 13.3422 15.5063 13.5063C15.3422 13.6704 15.25 13.8929 15.25 14.125C15.25 14.3571 15.3422 14.5796 15.5063 14.7437C15.6704 14.9078 15.8929 15 16.125 15H18.375C18.6071 15 18.8296 14.9078 18.9937 14.7437C19.1578 14.5796 19.25 14.3571 19.25 14.125C19.25 13.8929 19.1578 13.6704 18.9937 13.5063C18.8296 13.3422 18.6071 13.25 18.375 13.25H16.125ZM17.5 5.625V6.25H5.125C4.95924 6.25 4.80027 6.18415 4.68306 6.06694C4.56585 5.94973 4.5 5.79076 4.5 5.625C4.5 5.45924 4.56585 5.30027 4.68306 5.18306C4.80027 5.06585 4.95924 5 5.125 5H16.875C17.2203 5 17.5 5.27998 17.5 5.625ZM4.5 8H18.375C18.806 8 19.2193 8.1712 19.524 8.47595C19.8288 8.7807 20 9.19402 20 9.625V18.375C20 18.806 19.8288 19.2193 19.524 19.524C19.2193 19.8288 18.806 20 18.375 20H6.125C5.69402 20 5.2807 19.8288 4.97595 19.524C4.6712 19.2193 4.5 18.806 4.5 18.375V8Z" fill="#0D115A" stroke="#0D115A" stroke-width="0.5"/>
</svg>
